<svg xmlns="http://www.w3.org/2000/svg" viewBox="0 0 64 64">
  <defs>
    <linearGradient id="cgf" x1="0" y1="0" x2="1" y2="1">
      <stop offset="0%" stop-color="#ffd166"/><stop offset="52%" stop-color="#ff8a1e"/><stop offset="100%" stop-color="#e05304"/>
    </linearGradient>
  </defs>
  <rect width="64" height="64" rx="15" fill="#0e1620"/>
  <path d="M10 31.5A22 22 0 0 1 54 31.5V55H10z" fill="#131c27" stroke="url(#cgf)" stroke-width="3.2" stroke-linejoin="round"/>
  <g stroke="url(#cgf)" stroke-width="2.2" stroke-linecap="round" opacity=".55">
    <path d="M18.5 25h27"/><path d="M14.8 30.6h34.4"/>
  </g>
  <path d="M16.6 47.4v-3c0-1.2.8-2.2 2-2.6l2.8-.8 3.3-4.5a3.8 3.8 0 0 1 3-1.5h9.4a3.8 3.8 0 0 1 3 1.5l3.3 4.5 2.8.8c1.1.4 1.9 1.4 1.9 2.6v3z" fill="#fff"/>
  <circle cx="24.4" cy="48.6" r="3.6" fill="url(#cgf)"/><circle cx="24.4" cy="48.6" r="1.4" fill="#131c27"/>
  <circle cx="40.6" cy="48.6" r="3.6" fill="url(#cgf)"/><circle cx="40.6" cy="48.6" r="1.4" fill="#131c27"/>
</svg>
